<svg xmlns="http://www.w3.org/2000/svg" width="433.09" height="178.35" viewBox="0 0 433.088 178.354" enable-background="new 0 0 433.088 178.354"><switch><g><path fill-rule="evenodd" fill="#f48120" d="m68.62 7.746c29.569-12.691 63.835.99 76.53 30.56 12.693 29.567-.988 63.835-30.557 76.53l-6.842-15.938c20.771-8.918 30.379-32.979 21.463-53.751-8.918-20.771-32.979-30.378-53.752-21.461l-6.84-15.938"/><path fill="#231f20" d="m415.75 144.3l-5.707-12.962h-19.965l-5.85 12.962h-8.592l24.387-52.35 24.369 52.35h-8.642m-22.642-19.798h14.05l-5.168-11.483c-.293-.729-.607-1.574-.926-2.527-.316-.948-.648-2.01-.965-3.179-.268 1.104-.561 2.123-.877 3.077-.309.948-.625 1.831-.941 2.629l-5.168 11.483m-28.573-30.577h8.176v50.37h-8.176v-50.37m-17.697 6.975v43.4h-8.174v-43.4h-13.387v-6.975h34.875v6.975h-13.314m-55.814 33.31l6.527-3.02c.623 2.241 1.764 3.957 3.418 5.132 1.645 1.183 3.758 1.771 6.328 1.771 2.443 0 4.367-.681 5.814-2.032 1.432-1.348 2.148-3.159 2.148-5.425 0-2.958-2.453-5.6-7.377-7.912-.691-.341-1.219-.601-1.584-.753-5.553-2.712-9.252-5.154-11.1-7.35-1.842-2.198-2.77-4.876-2.77-8.03 0-4.108 1.396-7.429 4.18-9.979 2.783-2.547 6.445-3.816 10.969-3.816 3.709 0 6.822.716 9.32 2.147 2.502 1.436 4.229 3.486 5.191 6.169l-6.387 3.31c-1.012-1.587-2.113-2.749-3.324-3.476-1.209-.74-2.596-1.103-4.156-1.103-2.197 0-3.959.572-5.25 1.723-1.303 1.139-1.949 2.681-1.949 4.607 0 3.03 2.854 5.855 8.549 8.466.434.209.777.375 1.033.478 4.98 2.306 8.395 4.548 10.252 6.73 1.854 2.194 2.783 4.931 2.783 8.209 0 4.769-1.504 8.561-4.51 11.364-3.01 2.807-7.07 4.219-12.188 4.219-4.289 0-7.797-.989-10.547-2.962-2.732-1.973-4.531-4.788-5.374-8.465m-32.588 10.09v-50.37h28.11v6.975h-19.938v12.614h19.938v7.184h-19.938v16.275h19.938v7.327h-28.11zm-25.534 1.974l-22.485-52.35h8.514l11.286 26.845c.668 1.549 1.219 2.992 1.654 4.309.434 1.325.773 2.583 1.031 3.77.295-1.259.672-2.559 1.131-3.923.455-1.352.998-2.736 1.619-4.155l11.248-26.845h8.469l-22.467 52.35m-26.13-1.974l-5.707-12.962h-19.965l-5.847 12.962h-8.596l24.389-52.35 24.368 52.35h-8.642m-22.641-19.798h14.04l-5.166-11.483c-.295-.729-.613-1.574-.928-2.527-.318-.948-.648-2.01-.965-3.179-.271 1.104-.563 2.123-.88 3.077-.306.948-.625 1.831-.938 2.629l-5.168 11.483"/><path fill="#231f20" d="m414.98 163.07h8.809c0 .15.004.363.018.641.031.72.047 1.206.047 1.459 0 3.127-.896 5.563-2.688 7.291-1.801 1.736-4.328 2.603-7.586 2.603-1.83 0-3.455-.269-4.885-.804-1.426-.541-2.678-1.353-3.75-2.435-1.053-1.076-1.863-2.337-2.424-3.789-.566-1.45-.846-3-.846-4.653 0-1.682.283-3.234.857-4.654s1.418-2.669 2.545-3.756c1.084-1.065 2.357-1.874 3.816-2.433 1.459-.558 3.02-.838 4.686-.838 1.748 0 3.322.32 4.701.96 1.377.641 2.619 1.614 3.701 2.935l-2.637 1.992c-.75-.873-1.598-1.521-2.543-1.944-.941-.428-1.992-.642-3.162-.642-2.416 0-4.381.775-5.908 2.321-1.527 1.547-2.289 3.555-2.289 6.03 0 2.52.762 4.56 2.289 6.122 1.527 1.568 3.504 2.353 5.936 2.353 2.07 0 3.701-.482 4.883-1.443 1.189-.966 1.783-2.273 1.783-3.938v-.321h-5.354v-3.053m-41.522 11.403v-23.14l14.15 13.605c.383.383.771.794 1.174 1.229.393.437.807.93 1.244 1.477v-15.441h3.334v23.14l-14.43-13.859c-.383-.38-.758-.775-1.117-1.194-.361-.411-.699-.846-1.027-1.304v15.487h-3.332zm-12.984-22.273h3.613v22.273h-3.613v-22.273m-27.528 22.273v-22.273h3.615v8.225h10.961v-8.225h3.615v22.273h-3.615v-10.81h-10.96v10.81h-3.616m-22.539-4.461l2.887-1.336c.277.993.781 1.752 1.512 2.271.727.524 1.662.782 2.797.782 1.082 0 1.932-.304 2.572-.897.633-.598.949-1.396.949-2.396 0-1.312-1.086-2.479-3.26-3.499-.307-.15-.541-.266-.699-.333-2.457-1.196-4.092-2.281-4.908-3.25-.814-.972-1.227-2.158-1.227-3.551 0-1.818.619-3.285 1.85-4.412 1.23-1.128 2.85-1.688 4.85-1.688 1.639 0 3.02.316 4.121.949 1.105.637 1.869 1.542 2.295 2.729l-2.824 1.463c-.447-.7-.936-1.214-1.469-1.538-.533-.328-1.148-.487-1.84-.487-.969 0-1.748.254-2.32.764-.576.503-.859 1.183-.859 2.037 0 1.336 1.26 2.589 3.777 3.74.193.095.344.166.457.213 2.203 1.017 3.713 2.01 4.531 2.974.822.973 1.232 2.183 1.232 3.631 0 2.106-.664 3.784-1.994 5.02-1.328 1.246-3.125 1.867-5.385 1.867-1.898 0-3.449-.435-4.664-1.31-1.211-.873-2-2.118-2.381-3.744m-11.707-17.812h3.613v22.273h-3.613v-22.273zm-18.871 22.273v-22.273h3.613v19.03h8.096v3.242h-11.709m-22.11 0v-22.273h5.617c1.604 0 2.789.091 3.553.262.766.169 1.414.454 1.955.849.689.512 1.227 1.175 1.605 1.994.377.825.57 1.731.57 2.729 0 1.186-.275 2.174-.822 2.973-.549.799-1.344 1.356-2.387 1.665 1.299.205 2.318.795 3.057 1.775.744.977 1.119 2.214 1.119 3.7 0 .902-.156 1.757-.473 2.57-.314.812-.758 1.503-1.334 2.068-.613.617-1.365 1.052-2.271 1.309-.902.253-2.41.38-4.541.38h-5.648zm3.553-3.03h1.242c1.27 0 2.221-.051 2.848-.149.627-.103 1.119-.282 1.49-.533.445-.289.787-.688 1.033-1.184.242-.498.361-1.044.361-1.645 0-.707-.141-1.333-.441-1.855-.297-.528-.713-.94-1.26-1.229-.344-.178-.738-.3-1.18-.384-.441-.079-1.027-.122-1.76-.122h-1.092-1.242v7.101m.0001-9.841h1.379c1.723 0 2.938-.233 3.654-.704.713-.475 1.072-1.27 1.072-2.385 0-1.214-.33-2.063-.986-2.558-.662-.495-1.906-.739-3.74-.739h-1.379v6.386m-30.991-9.407h3.584v13.523c0 2 .461 3.516 1.389 4.52.932 1.012 2.316 1.518 4.164 1.518 1.832 0 3.215-.506 4.145-1.518.926-1 1.391-2.515 1.391-4.52v-13.523h3.611v13.855c0 3.01-.756 5.271-2.277 6.766-1.521 1.494-3.816 2.242-6.881 2.242-3.063 0-5.346-.748-6.855-2.238-1.512-1.487-2.27-3.749-2.27-6.77v-13.855zm-17.253 12.273v10h-3.397v-22.273h5.474c1.627 0 2.818.091 3.588.265.764.179 1.432.476 2 .878.701.514 1.244 1.21 1.645 2.088.395.878.592 1.843.592 2.895 0 1.06-.197 2.032-.592 2.926-.4.89-.943 1.594-1.645 2.095-.572.404-1.24.697-2 .867-.77.174-1.961.261-3.588.261h-.713-1.364zm.217-2.958h.93c2.01 0 3.35-.221 4.02-.655.668-.436 1-1.207 1-2.31 0-1.183-.357-2.02-1.073-2.507-.71-.482-2.031-.731-3.946-.731h-.93v6.203z"/><path fill-rule="evenodd" fill="#47a4ad" d="m35.3 132.39c21.886-.051 43.14-2.789 63.45-7.898l-23.682-56.33c-1.585-3.671-2.893-7.092-3.922-10.208-1.029-3.143-1.836-6.119-2.447-8.928-.695 2.976-1.586 6.06-2.67 9.29-1.085 3.198-2.365 6.479-3.839 9.846l-25.648 61.2-1.245 3.03m176.01-68.59c-25.27 27.305-56.28 49.21-91.12 63.801l1.777 4.137 18.06 42.955.033.078h-19.771l-.072-.17-17.377-40.453c-26.26 8.85-54.37 13.652-83.61 13.652-3.474 0-6.925-.088-10.365-.223l-.163-.005 6.816-15.885 53.19-123.94 47.922 111.56c35.533-11.706 67.7-30.816 94.68-55.5"/></g></switch></svg>